<svg width="40" height="40" viewBox="0 0 40 40" fill="none" xmlns="http://www.w3.org/2000/svg">
<g clip-path="url(#clip0_321_644)">
<path d="M6.16332 37.1445L29.4763 28.7655L10.2483 9.60352L1.90832 32.8945C0.961323 35.5405 3.51932 38.0945 6.16332 37.1445Z" fill="#EF4452"/>
<path d="M10.3563 4.66276C11.3879 4.66276 12.2243 3.82643 12.2243 2.79476C12.2243 1.76309 11.3879 0.926758 10.3563 0.926758C9.32461 0.926758 8.48828 1.76309 8.48828 2.79476C8.48828 3.82643 9.32461 4.66276 10.3563 4.66276Z" fill="#EDCCF8"/>
<path d="M30.3291 28.2568C32.3325 26.2535 29.5786 20.2514 24.178 14.8508C18.7775 9.45025 12.7754 6.6963 10.772 8.69969C8.7686 10.7031 11.5226 16.7052 16.9231 22.1057C22.3237 27.5063 28.3258 30.2602 30.3291 28.2568Z" fill="#A41926"/>
<path d="M17.0633 13.8073C16.9503 13.8073 16.8343 13.7913 16.7193 13.7593C16.0553 13.5703 15.6713 12.8783 15.8603 12.2143C16.4563 10.1273 16.4243 7.92329 15.7673 5.84029C15.5593 5.18129 15.9253 4.48029 16.5833 4.27229C17.2413 4.06429 17.9433 4.42929 18.1513 5.08829C18.9563 7.63929 18.9953 10.3413 18.2643 12.9003C18.1073 13.4493 17.6083 13.8073 17.0633 13.8073Z" fill="#B44BD7"/>
<path d="M29.3689 17.457C28.9819 17.457 28.5999 17.278 28.3559 16.94C27.9509 16.381 28.0759 15.6 28.6349 15.194C31.2789 13.278 34.4099 12.189 37.6899 12.046C38.3849 12.039 38.9629 12.551 38.9939 13.24C39.0239 13.93 38.4889 14.513 37.7999 14.544C35.0099 14.666 32.3489 15.591 30.1019 17.219C29.8799 17.38 29.6239 17.457 29.3699 17.457H29.3689Z" fill="#EF4452"/>
<path d="M34.3798 23.766C34.2208 23.766 34.0588 23.735 33.9018 23.67C33.0618 23.322 32.1858 23.054 31.2978 22.873C28.5248 22.307 25.6698 22.582 23.0418 23.67C22.4008 23.933 21.6718 23.631 21.4088 22.994C21.1448 22.356 21.4478 21.625 22.0848 21.361C25.1758 20.081 28.5358 19.757 31.7978 20.424C32.8418 20.637 33.8718 20.952 34.8588 21.361C35.4968 21.625 35.7998 22.356 35.5358 22.994C35.3368 23.475 34.8698 23.766 34.3798 23.766Z" fill="#7896FF"/>
<path d="M21.3577 17.5699C20.9827 17.5699 20.6107 17.4019 20.3647 17.0809C19.9447 16.5339 20.0477 15.7489 20.5957 15.3289C23.6027 13.0219 25.5307 9.68193 26.0257 5.92393C26.1157 5.23993 26.7447 4.75693 27.4277 4.84793C28.1127 4.93793 28.5947 5.56593 28.5037 6.24993C27.9217 10.6699 25.6537 14.5979 22.1167 17.3119C21.8897 17.4859 21.6237 17.5699 21.3577 17.5699Z" fill="#4A81EC"/>
<path d="M15.7308 19.7373L15.7313 17.8603C15.7314 17.4699 15.4149 17.1532 15.0244 17.1531L13.1474 17.1527C12.757 17.1526 12.4404 17.4691 12.4403 17.8595L12.4398 19.7365C12.4397 20.127 12.7562 20.4436 13.1466 20.4437L15.0236 20.4441C15.4141 20.4442 15.7307 20.1278 15.7308 19.7373Z" fill="white"/>
<path d="M23.6157 0.554848L21.9014 1.41952C21.5449 1.59934 21.4016 2.03413 21.5815 2.39065L22.4461 4.10493C22.626 4.46145 23.0607 4.60468 23.4173 4.42486L25.1315 3.56019C25.4881 3.38037 25.6313 2.94558 25.4515 2.58906L24.5868 0.87478C24.407 0.518262 23.9722 0.375023 23.6157 0.554848Z" fill="#7896FF"/>
<path d="M37.3351 29.4026L37.9167 27.5728C38.0377 27.1923 37.8273 26.7857 37.4467 26.6648L35.6169 26.0831C35.2364 25.9622 34.8298 26.1726 34.7089 26.5531L34.1272 28.3829C34.0063 28.7635 34.2167 29.17 34.5973 29.291L36.427 29.8726C36.8076 29.9936 37.2141 29.7831 37.3351 29.4026Z" fill="#A8BFFF"/>
<path d="M33.5343 10.5139C34.3649 10.5139 35.0383 9.8405 35.0383 9.00986C35.0383 8.17922 34.3649 7.50586 33.5343 7.50586C32.7036 7.50586 32.0303 8.17922 32.0303 9.00986C32.0303 9.8405 32.7036 10.5139 33.5343 10.5139Z" fill="#FFC84D"/>
<path d="M3.504 17.0353C4.33464 17.0353 5.008 16.362 5.008 15.5313C5.008 14.7007 4.33464 14.0273 3.504 14.0273C2.67336 14.0273 2 14.7007 2 15.5313C2 16.362 2.67336 17.0353 3.504 17.0353Z" fill="#A8BFFF"/>
<path d="M24.5646 36.6487C25.5338 36.6487 26.3196 35.8629 26.3196 34.8937C26.3196 33.9244 25.5338 33.1387 24.5646 33.1387C23.5953 33.1387 22.8096 33.9244 22.8096 34.8937C22.8096 35.8629 23.5953 36.6487 24.5646 36.6487Z" fill="#FFC84D"/>
</g>
<defs>
<clipPath id="clip0_321_644">
<rect width="40" height="40" fill="white"/>
</clipPath>
</defs>
</svg>
