<svg width="194" height="32" viewBox="0 0 194 32" fill="none" xmlns="http://www.w3.org/2000/svg">
<path d="M41.4805 10.1609C41.2714 10.0738 41.0448 10.0216 40.8357 10.0216C40.4 10.0216 39.9469 10.1958 39.6157 10.527L31.825 18.3177V11.747C31.825 11.0498 31.4067 10.4223 30.7619 10.1609C30.5527 10.0738 30.3262 10.0216 30.117 10.0216C29.6813 10.0216 29.2281 10.1958 28.897 10.527L20.6009 18.8231V11.747C20.6009 11.0498 20.1826 10.4223 19.5377 10.1609C19.3286 10.0738 19.102 10.0216 18.8929 10.0216C18.4571 10.0216 18.004 10.1958 17.6728 10.527L9.88221 18.3177V1.72543C9.88221 0.784279 9.11525 0 8.15667 0H1.72543C0.784279 0 0 0.76685 0 1.72543V29.4895C0 30.4307 0.76685 31.2149 1.72543 31.2149H40.7834C41.7246 31.2149 42.5089 30.4481 42.5089 29.4895V11.747C42.5089 11.0498 42.0906 10.4223 41.4457 10.1609H41.4805Z" fill="white"/>
<path d="M69.6973 20.985C69.3139 20.6364 68.8608 20.3401 68.3379 20.1136C67.815 19.887 67.2573 19.7127 66.6647 19.6604C66.7518 19.5733 66.8216 19.4687 66.8913 19.3816C66.961 19.277 67.0307 19.1725 67.083 19.0679C67.2224 18.7367 66.9784 18.423 66.351 18.1267C66.229 18.0744 66.0896 18.0222 65.9327 17.9873C65.7759 17.935 65.619 17.9175 65.497 17.9001C65.375 17.8827 65.2355 17.9001 65.1484 17.9524C65.0438 18.0047 65.009 18.0744 64.9742 18.1616C64.9742 18.2661 65.0439 18.4055 65.2007 18.5798C65.3053 18.667 65.3925 18.7715 65.4273 18.8935C65.4796 19.0155 65.497 19.1201 65.497 19.2421C65.497 19.4339 65.4098 19.5907 65.2355 19.6779C64.6255 19.7476 64.0504 19.9044 63.5275 20.1136C63.0047 20.3227 62.5516 20.6364 62.1681 20.985C61.7847 21.3336 61.4884 21.7519 61.2618 22.2051C61.0352 22.6756 60.9307 23.1636 60.9307 23.669C60.9307 24.3139 61.0701 24.8891 61.3315 25.3946C61.5929 25.9 61.9415 26.3182 62.3946 26.6668C62.8478 27.0154 63.3707 27.2769 63.9807 27.4686C64.5907 27.6603 65.2356 27.73 65.9153 27.73C66.595 27.73 67.2398 27.6254 67.8498 27.4686C68.4599 27.2769 68.9828 27.0154 69.4359 26.6668C69.8891 26.3182 70.2376 25.9 70.5165 25.3946C70.7779 24.8891 70.9173 24.3139 70.9173 23.669C70.9173 23.1461 70.8127 22.6582 70.5687 22.2051C70.3422 21.7345 70.0459 21.3336 69.6451 20.985H69.68H69.6973ZM68.9304 24.8543C68.7561 25.2028 68.5296 25.499 68.2159 25.743C67.9196 26.0045 67.571 26.1788 67.1875 26.3182C66.8041 26.4577 66.3859 26.5099 65.9327 26.5099C65.0264 26.5099 64.2595 26.2485 63.6321 25.743C63.0047 25.2202 62.691 24.5405 62.691 23.669C62.691 23.2333 62.7781 22.8325 62.9349 22.4665C63.0918 22.1005 63.3358 21.7867 63.6147 21.5253C63.911 21.2639 64.2596 21.0548 64.643 20.9153C65.0439 20.7759 65.4447 20.6888 65.8978 20.6888C66.351 20.6888 66.7693 20.7585 67.1528 20.9153C67.5536 21.0548 67.8847 21.2639 68.181 21.5253C68.4773 21.7867 68.7039 22.1005 68.8956 22.4665C69.0874 22.8325 69.157 23.2333 69.157 23.669C69.157 24.1047 69.0699 24.4883 68.8956 24.8543H68.9131H68.9304Z" fill="white"/>
<path d="M76.0064 11.2238C75.7276 11.0843 75.3617 11.032 74.9085 11.032C74.6122 11.032 74.3158 11.0495 74.0544 11.1017C73.7756 11.154 73.5664 11.2238 73.427 11.3283C73.2527 11.4678 72.9216 11.5549 72.4335 11.6071C72.329 11.6071 72.1896 11.6246 72.0153 11.6246H71.4924L71.5621 6.44828C71.5621 6.30885 71.5621 6.15197 71.5621 5.99511C71.5621 5.83825 71.5796 5.68138 71.6319 5.54195C71.7016 5.12366 71.5622 4.77505 71.1962 4.53105C70.8999 4.3219 70.5164 4.11276 70.0458 3.88619C69.5752 3.65962 69.1222 3.52017 68.7039 3.43302C68.6341 3.43302 68.5295 3.39822 68.4249 3.38079C68.3029 3.38079 68.1809 3.36336 68.0763 3.38079C67.9718 3.38079 67.8672 3.39818 67.7801 3.45047C67.6929 3.48533 67.6406 3.55503 67.6406 3.65961C67.6406 3.71189 67.6755 3.76415 67.7452 3.8513C67.8149 3.93844 67.8846 3.99072 67.9718 4.06044C68.5992 4.4613 69.1569 4.91448 69.6101 5.40249L69.7147 15.6855C69.7147 16.435 69.7147 17.0449 69.7495 17.5155C69.7844 17.9861 69.8192 18.3521 69.8367 18.6135C69.8715 18.875 69.9239 19.0493 70.011 19.1538C70.0807 19.2584 70.1852 19.2933 70.2724 19.2933C70.4641 19.2933 70.6384 19.1887 70.7952 19.0144C70.9521 18.8227 71.0567 18.5787 71.1438 18.2475C71.231 17.8466 71.2832 17.3587 71.3355 16.7835C71.3878 16.191 71.4053 15.5112 71.4228 14.7095V12.618H74.8387C75.501 12.618 75.9194 12.5484 76.0937 12.4438C76.2854 12.3392 76.355 12.1474 76.355 11.9034C76.355 11.6245 76.2156 11.4329 75.9368 11.2934V11.2585L76.0064 11.2238Z" fill="white"/>
<path d="M64.7132 15.7394C65.4278 15.5128 66.0901 15.3037 66.7176 15.0945C67.345 14.8679 67.8853 14.6763 68.3384 14.502C68.5476 14.4323 68.687 14.3277 68.7741 14.1883C68.8439 14.0489 68.8787 13.9268 68.8438 13.8048C68.809 13.7002 68.7392 13.613 68.6172 13.5433C68.4952 13.4736 68.3384 13.4736 68.1293 13.5433C67.6413 13.6827 67.0836 13.8222 66.491 13.979C65.881 14.1359 65.2535 14.2928 64.5912 14.4497C63.9463 14.6239 63.284 14.7634 62.6392 14.9203C61.9943 15.0597 61.3844 15.1991 60.8441 15.3211C60.2863 15.4431 59.7983 15.5477 59.38 15.6C58.9617 15.6697 58.648 15.7046 58.4563 15.7046C58.2123 15.7046 58.0554 15.6697 57.9857 15.6C57.916 15.5303 57.8811 15.3734 57.8811 15.1294L57.9857 8.76784L63.8767 8.50648C64.7132 8.47162 65.271 8.40182 65.5324 8.31468C65.7938 8.21011 65.9332 8.05327 65.9332 7.79184C65.9332 7.46069 65.7763 7.23416 65.4626 7.0773C65.1489 6.93787 64.6958 6.86816 64.1207 6.86816C63.7024 6.86816 63.3364 6.88555 63.0227 6.93784C62.7089 6.99013 62.4649 7.05985 62.308 7.16442C62.1337 7.28643 61.8897 7.39102 61.5586 7.51302C61.2449 7.61759 60.844 7.6873 60.3909 7.72216C59.8157 7.77444 59.2057 7.79184 58.5957 7.79184C58.404 7.79184 58.16 7.77443 57.8637 7.70471C57.5674 7.635 57.2711 7.58275 57.0097 7.53047C56.7134 7.47818 56.3997 7.42586 56.0686 7.39101C55.7374 7.35615 55.4063 7.33867 55.0751 7.33867H54.5522C54.3779 7.33867 54.2211 7.33872 54.0817 7.39101C53.9422 7.42586 53.8202 7.47809 53.7156 7.54781C53.6111 7.61752 53.5762 7.72215 53.5762 7.82673C53.5762 8.00102 53.7331 8.10561 54.0642 8.17532C54.4651 8.24504 54.8311 8.31467 55.1797 8.41925C55.5283 8.52382 55.7897 8.6284 55.9988 8.7504L56.0686 15.478C56.0686 15.6349 56.1208 15.8265 56.2079 16.0531C56.2951 16.2796 56.4171 16.4888 56.5565 16.6979C56.696 16.9071 56.8354 17.0989 56.9748 17.2383C57.1142 17.3778 57.2363 17.4648 57.3409 17.4648C57.6546 17.4648 58.0903 17.4126 58.6306 17.3254C59.1883 17.2209 59.7808 17.0988 60.4431 16.9245C61.1054 16.7502 61.8026 16.576 62.552 16.3494C63.2841 16.1229 64.0161 15.9137 64.7306 15.7046H64.7481L64.7132 15.7394Z" fill="white"/>
<path d="M91.4489 4.02578C92.0764 4.42665 92.6341 4.87972 93.0872 5.36773L93.1918 18.1431C93.1918 18.8925 93.1917 19.5025 93.2266 19.9731C93.244 20.4437 93.2964 20.8097 93.3138 21.0711C93.3487 21.3325 93.4009 21.5068 93.4881 21.6114C93.5578 21.716 93.6624 21.7508 93.7495 21.7508C93.9413 21.7508 94.1155 21.6463 94.2724 21.472C94.4292 21.2803 94.5338 21.0363 94.621 20.7052C94.7081 20.3043 94.7604 19.8162 94.8127 19.2411C94.865 18.6485 94.8824 17.9688 94.8998 17.1671L95.0044 6.46575C95.0044 6.32632 95.0044 6.16955 95.0044 6.01269C95.0044 5.85583 95.0217 5.69896 95.074 5.55953C95.1437 5.14123 95.0043 4.79263 94.6383 4.54863C94.342 4.33948 93.9586 4.13034 93.4881 3.90377C93.0175 3.67719 92.5643 3.53775 92.146 3.4506C92.0763 3.4506 91.9718 3.4158 91.8672 3.39837C91.7452 3.39837 91.6232 3.38094 91.5186 3.39837C91.414 3.39837 91.3095 3.41576 91.2049 3.46805C91.1177 3.50291 91.0654 3.57261 91.0654 3.67719C91.0654 3.72947 91.1003 3.78173 91.17 3.86888C91.2397 3.95602 91.3094 4.0083 91.3966 4.07801L91.4489 4.02578Z" fill="white"/>
<path d="M95.9977 25.4804C95.684 25.3758 95.2309 25.3234 94.6209 25.3234C94.1851 25.3234 93.8191 25.3235 93.5054 25.3583C93.1917 25.3758 92.9651 25.4629 92.8256 25.5675C92.6514 25.6895 92.4248 25.7766 92.1111 25.8115C91.8148 25.8464 91.4662 25.8812 91.0479 25.9161C90.7864 25.9161 90.4728 25.9335 90.1242 25.951C89.7756 25.951 89.3922 25.9509 89.0262 25.9683C88.6427 25.9683 88.2942 25.9683 87.9456 25.9683H87.109C86.621 25.9683 86.2899 25.8986 86.0981 25.7417C85.9064 25.6023 85.8367 25.2712 85.8541 24.7832L85.9238 21.8726V21.402C85.9238 21.2625 85.9238 21.1231 85.9412 20.9837C85.9412 20.792 85.9238 20.6177 85.8192 20.4608C85.7147 20.304 85.5579 20.1994 85.3487 20.1646C84.9653 20.0949 84.547 20.0426 84.059 20.0251C83.5884 20.0077 83.0656 19.9902 82.5253 19.9902C82.2813 19.9902 82.0895 20.0251 81.9326 20.1122C81.7758 20.182 81.7061 20.304 81.7061 20.4434C81.7061 20.5305 81.7409 20.6003 81.8281 20.67C81.8978 20.7397 81.985 20.7746 82.0721 20.8094C82.4555 20.914 82.8041 21.0011 83.1178 21.0883C83.4315 21.1754 83.7278 21.28 84.0416 21.3672L84.0938 24.5566C84.0938 25.4454 84.3378 26.0729 84.7561 26.404C85.1918 26.7526 85.9587 26.9269 87.0742 26.8921L94.3768 26.8397C95.2134 26.8397 95.7711 26.7701 96.0499 26.6655C96.3288 26.5609 96.4856 26.3518 96.4856 26.1078C96.4856 25.7592 96.3463 25.5326 96.0326 25.428L95.9977 25.4804Z" fill="white"/>
<path d="M87.1797 17.0791C87.5282 17.48 87.8246 17.7763 88.086 17.968C88.3474 18.1597 88.5565 18.1946 88.7656 18.0377C88.9225 17.9331 89.0097 17.7937 89.0271 17.602C89.0445 17.4103 89.0271 17.2012 88.9574 16.992C88.8877 16.7654 88.783 16.5214 88.6436 16.2774C88.5042 16.0334 88.3822 15.7894 88.2079 15.5454C87.9987 15.2317 87.7374 14.9529 87.3888 14.7263C87.0402 14.4997 86.622 14.2383 86.134 13.9594C85.8377 13.8026 85.5064 13.5411 85.1579 13.1751C84.8093 12.8091 84.4433 12.4605 84.0947 12.1642H84.0773C84.8267 11.1533 85.4368 10.125 85.9074 9.11417C86.0294 8.87016 86.0468 8.64356 85.9596 8.43442C85.8725 8.22527 85.7156 8.03354 85.489 7.87668C85.0881 7.61525 84.6351 7.38876 84.1471 7.19704C83.659 7.00533 83.171 6.84843 82.7004 6.72643C82.6307 6.72643 82.5435 6.70898 82.439 6.70898C82.3344 6.70898 82.2124 6.709 82.1078 6.72643C82.0032 6.72643 81.9162 6.77871 81.8464 6.831C81.7767 6.88329 81.7244 6.93555 81.7244 7.02269C81.7244 7.12726 81.829 7.23182 82.073 7.3364C82.5087 7.54554 82.8399 7.73731 83.049 7.92902C83.2582 8.12074 83.4499 8.27754 83.5893 8.41697C83.7985 8.62612 83.8508 8.8702 83.7288 9.14906C83.4325 9.8985 83.049 10.6654 82.5435 11.4497C82.0555 12.234 81.4979 13.0008 80.8704 13.7676C80.243 14.5345 79.5632 15.2491 78.8661 15.9462C78.1515 16.626 77.4544 17.2534 76.7573 17.7937C76.6004 17.9157 76.5132 18.0377 76.4958 18.1772C76.4784 18.3166 76.4958 18.4212 76.5481 18.5083C76.6178 18.5955 76.7049 18.6477 76.8269 18.6651C76.9489 18.6825 77.0884 18.6651 77.2627 18.5605C78.2561 18.0377 79.3193 17.2883 80.4173 16.3123C81.5153 15.3363 82.5436 14.2382 83.5196 13.0356L87.2145 17.1488V17.114L87.1797 17.0791Z" fill="white"/>
<path d="M115.292 18.0738C115.153 18.0041 114.944 18.0041 114.7 18.0738C114.177 18.2132 113.602 18.3526 112.957 18.492C112.312 18.6315 111.65 18.7709 110.97 18.9103C110.29 19.0497 109.576 19.1717 108.896 19.3111C108.199 19.4331 107.519 19.5378 106.892 19.625C105.968 19.7644 105.166 19.8863 104.469 19.9735C103.772 20.0606 103.162 20.1129 102.639 20.1304C101.925 20.1652 101.297 20.1478 100.722 20.1129C100.164 20.0606 99.6065 19.9735 99.0488 19.8863C98.8048 19.8515 98.648 19.9212 98.6131 20.078C98.5608 20.2523 98.6131 20.3917 98.7873 20.5137C98.9616 20.6357 99.136 20.7753 99.3625 20.9321C99.5891 21.089 99.8331 21.2457 100.129 21.3852C100.408 21.5246 100.705 21.6467 101.018 21.7687C101.332 21.8732 101.663 21.9255 101.994 21.9255C102.134 21.9255 102.256 21.9256 102.395 21.9081C102.535 21.9081 102.639 21.8558 102.744 21.8036C103.057 21.6467 103.354 21.542 103.667 21.4897C104.835 21.298 105.829 21.1412 106.63 20.9669C107.432 20.8275 108.182 20.6706 108.861 20.5312C110.081 20.2698 111.232 20.0083 112.312 19.7469C113.393 19.4854 114.299 19.2589 115.031 19.0672C115.24 19.0149 115.38 18.9277 115.467 18.7883C115.554 18.6489 115.589 18.5269 115.571 18.3875C115.554 18.2655 115.467 18.1609 115.31 18.1087H115.292V18.0738Z" fill="white"/>
<path d="M103.317 14.6746C103.788 15.0754 104.328 15.4066 104.973 15.6331C105.618 15.8597 106.333 15.9817 107.117 15.9817C107.901 15.9817 108.616 15.8597 109.261 15.6331C109.905 15.4066 110.463 15.0754 110.916 14.6746C111.387 14.2737 111.736 13.8031 111.98 13.2454C112.241 12.6877 112.363 12.1125 112.363 11.4851C112.363 10.8576 112.241 10.265 111.98 9.72475C111.718 9.18446 111.37 8.71388 110.916 8.31302C110.446 7.91216 109.905 7.58103 109.261 7.35446C108.616 7.12788 107.901 7.00586 107.117 7.00586C106.333 7.00586 105.618 7.12788 104.973 7.35446C104.328 7.58103 103.771 7.91216 103.317 8.31302C102.847 8.71388 102.498 9.18446 102.237 9.72475C101.975 10.265 101.836 10.8576 101.836 11.4851C101.836 12.1125 101.975 12.7051 102.237 13.2454C102.498 13.8031 102.864 14.2737 103.317 14.6746ZM103.962 10.1779C104.119 9.77705 104.363 9.4285 104.642 9.11478C104.938 8.80106 105.287 8.57454 105.705 8.40025C106.123 8.24339 106.594 8.15622 107.099 8.15622C107.605 8.15622 108.075 8.24339 108.494 8.40025C108.912 8.57454 109.261 8.80106 109.557 9.11478C109.853 9.4285 110.08 9.77705 110.237 10.1779C110.393 10.5788 110.463 11.0145 110.463 11.4851C110.463 12.4437 110.15 13.2454 109.54 13.8728C108.93 14.5177 108.11 14.8315 107.082 14.8315C106.054 14.8315 105.235 14.5177 104.625 13.8728C104.015 13.2279 103.701 12.4437 103.701 11.4851C103.701 11.0145 103.788 10.5788 103.945 10.1779H103.962Z" fill="white"/>
<path d="M117.714 4.51445C117.418 4.3053 117.034 4.09616 116.546 3.86959C116.075 3.64301 115.622 3.50357 115.204 3.41642C115.134 3.41642 115.047 3.38162 114.925 3.36419C114.803 3.36419 114.681 3.34676 114.577 3.36419C114.472 3.36419 114.368 3.38158 114.298 3.43387C114.228 3.46873 114.176 3.53843 114.176 3.64301C114.176 3.69529 114.211 3.74766 114.28 3.8348C114.35 3.90452 114.42 3.97423 114.507 4.04394C115.117 4.46223 115.657 4.89788 116.128 5.38589L116.076 24.6796C116.076 25.429 116.075 26.039 116.11 26.5096C116.128 26.9802 116.18 27.3462 116.232 27.6076C116.285 27.869 116.337 28.0433 116.424 28.1479C116.511 28.2525 116.563 28.2874 116.651 28.2874C116.79 28.2874 116.947 28.1828 117.121 28.0085C117.313 27.8168 117.435 27.5728 117.505 27.2417C117.592 26.8408 117.644 26.3528 117.696 25.7776C117.749 25.185 117.766 24.5053 117.801 23.7036L118.08 6.50135C118.08 6.36192 118.08 6.20505 118.097 6.04819C118.097 5.89133 118.132 5.73445 118.15 5.59502C118.184 5.31616 118.15 5.12449 118.097 4.98506C118.028 4.84563 117.906 4.72366 117.696 4.58423V4.54934L117.714 4.51445Z" fill="white"/>
<path d="M141.644 6.7626C141.348 6.55345 140.964 6.34432 140.476 6.11774C140.006 5.89117 139.553 5.75172 139.134 5.66458C139.065 5.66458 138.96 5.62967 138.855 5.61224C138.733 5.61224 138.611 5.59481 138.507 5.61224C138.402 5.61224 138.298 5.62974 138.228 5.68202C138.158 5.73431 138.106 5.78659 138.106 5.89116C138.106 5.94345 138.141 5.99571 138.211 6.08285C138.28 6.15257 138.35 6.22227 138.437 6.29199C138.733 6.4837 139.047 6.69282 139.396 6.9194C139.744 7.14597 140.023 7.39004 140.267 7.63404V13.124C139.901 13.1763 139.5 13.2287 139.03 13.2635C138.559 13.2984 138.054 13.3158 137.513 13.3158C137.374 13.3158 137.147 13.3158 136.834 13.2984C136.52 13.2984 136.241 13.246 135.98 13.2286C135.771 13.1938 135.649 13.2286 135.614 13.3681C135.579 13.4901 135.614 13.5946 135.718 13.6818C135.84 13.7864 135.98 13.9084 136.171 14.0304C136.363 14.1524 136.555 14.2744 136.747 14.3964C136.938 14.5184 137.147 14.623 137.339 14.7101C137.531 14.7798 137.723 14.8321 137.879 14.8321C137.984 14.8321 138.089 14.8321 138.193 14.7798C138.298 14.7275 138.385 14.7101 138.455 14.6752C138.594 14.5881 138.768 14.5184 138.943 14.4661C139.152 14.3964 139.361 14.3441 139.57 14.3266C139.779 14.3092 140.006 14.2569 140.215 14.2395V22.7099C140.197 23.4593 140.197 24.0693 140.215 24.5399C140.215 25.0105 140.232 25.3765 140.285 25.6379C140.337 25.8993 140.372 26.0736 140.441 26.1782C140.511 26.2828 140.616 26.3177 140.72 26.3177C140.86 26.3177 140.982 26.2131 141.121 26.0389C141.261 25.8471 141.348 25.6031 141.417 25.272C141.505 24.8711 141.557 24.3831 141.609 23.8079C141.661 23.2153 141.679 22.5356 141.696 21.7339L141.975 8.81919C141.975 8.67975 141.975 8.52288 141.993 8.36602C141.993 8.20916 142.027 8.05228 142.045 7.91285C142.08 7.63399 142.045 7.44232 141.993 7.30289C141.923 7.16346 141.801 7.04138 141.592 6.90195V6.83228L141.644 6.7626Z" fill="white"/>
<path d="M136.817 17.9003C136.625 17.5343 136.381 17.2031 136.085 16.9243C135.789 16.6454 135.405 16.3317 134.935 16.0006C134.638 15.8089 134.342 15.5649 134.046 15.2337C133.749 14.9026 133.488 14.6237 133.244 14.3099C133.418 14.0136 133.575 13.7348 133.715 13.4559C133.854 13.1945 133.976 12.9157 134.063 12.6543C134.203 12.2534 134.272 11.9397 134.255 11.7305C134.255 11.5039 134.185 11.3123 134.115 11.138C133.993 10.9288 133.854 10.772 133.715 10.6674C133.575 10.5628 133.383 10.4408 133.174 10.3188H135.963C136.608 10.3014 137.043 10.2317 137.27 10.1271C137.497 10.0225 137.619 9.84825 137.619 9.60425C137.619 9.36024 137.549 9.16851 137.392 9.04651C137.235 8.92451 136.974 8.85479 136.608 8.81993C136.242 8.78507 135.928 8.8025 135.684 8.81993C135.423 8.87222 135.248 8.92453 135.126 8.95939C134.97 9.02911 134.813 9.09879 134.673 9.15108C134.534 9.20337 134.36 9.25558 134.15 9.29044C133.906 9.34272 133.61 9.37759 133.261 9.41245C132.913 9.42988 132.547 9.4648 132.198 9.48223C131.832 9.48223 131.484 9.51702 131.153 9.51702C130.821 9.51702 130.56 9.51702 130.351 9.51702C129.845 9.51702 129.375 9.51709 128.939 9.48223C128.503 9.4648 128.05 9.41249 127.597 9.34277C127.405 9.30791 127.283 9.34275 127.214 9.4299C127.144 9.53447 127.196 9.63905 127.301 9.76105C127.423 9.88305 127.58 10.0224 127.771 10.1619C127.963 10.3013 128.172 10.4234 128.364 10.5454C128.573 10.6499 128.8 10.7545 129.009 10.8242C129.235 10.8939 129.445 10.9462 129.654 10.9462C129.776 10.9462 130.002 10.8765 130.368 10.7545C130.473 10.7196 130.577 10.6848 130.699 10.6325C130.804 10.5802 130.926 10.5453 131.048 10.5105C131.187 10.4756 131.362 10.4408 131.588 10.4234C131.815 10.4059 132.007 10.3885 132.181 10.3885C132.425 10.5627 132.564 10.8068 132.599 11.1205C132.634 11.4343 132.599 11.7653 132.46 12.1313C132.251 12.7936 131.902 13.4735 131.449 14.188C130.978 14.9026 130.438 15.5997 129.863 16.2968C129.27 16.994 128.643 17.6563 127.98 18.3012C127.318 18.9461 126.673 19.5387 126.046 20.0615C125.906 20.1661 125.819 20.288 125.819 20.4275C125.819 20.5669 125.819 20.6889 125.889 20.7761C125.959 20.8632 126.063 20.9155 126.203 20.9678C126.342 21.0026 126.482 20.9678 126.656 20.8632C127.144 20.5669 127.667 20.2009 128.207 19.7826C128.765 19.3469 129.288 18.8938 129.811 18.3883C130.333 17.9003 130.839 17.3774 131.327 16.8197C131.815 16.262 132.251 15.7218 132.669 15.164L135.336 18.8415C135.736 19.3992 136.067 19.8174 136.294 20.0789C136.521 20.3403 136.765 20.4275 136.991 20.3055C137.131 20.2357 137.218 20.1312 137.253 19.9917C137.305 19.8523 137.322 19.6955 137.322 19.5212C137.322 19.2772 137.27 19.0158 137.183 18.7369C137.096 18.4581 136.991 18.1792 136.834 17.8829L136.817 17.9003Z" fill="white"/>
<path d="M145.984 4.51445C145.688 4.3053 145.305 4.09616 144.817 3.86959C144.346 3.64301 143.893 3.50357 143.475 3.41642C143.405 3.41642 143.3 3.38162 143.196 3.36419C143.074 3.36419 142.952 3.34676 142.847 3.36419C142.743 3.36419 142.638 3.38158 142.568 3.43387C142.498 3.46873 142.446 3.53843 142.446 3.64301C142.446 3.69529 142.481 3.74766 142.551 3.8348C142.621 3.90452 142.69 3.97423 142.777 4.04394C143.074 4.23566 143.37 4.44478 143.684 4.67135C143.997 4.89793 144.259 5.14188 144.503 5.38589L144.451 24.6796C144.451 25.429 144.451 26.039 144.485 26.5096C144.52 26.9802 144.555 27.3462 144.59 27.6076C144.642 27.869 144.695 28.0433 144.747 28.1479C144.799 28.2525 144.886 28.2874 144.973 28.2874C145.113 28.2874 145.27 28.1828 145.427 28.0085C145.601 27.8168 145.705 27.5728 145.775 27.2417C145.862 26.8408 145.915 26.3528 145.967 25.7776C146.019 25.185 146.037 24.5053 146.054 23.7036L146.333 6.50135C146.333 6.36192 146.333 6.20505 146.35 6.04819C146.35 5.89133 146.385 5.73445 146.403 5.59502C146.437 5.31616 146.403 5.12449 146.35 4.98506C146.298 4.84563 146.159 4.72366 145.949 4.58423V4.54934L145.984 4.51445Z" fill="white"/>
<path d="M157.977 12.8788L161.376 16.382C161.725 16.748 162.021 17.0268 162.23 17.2011C162.457 17.3928 162.666 17.3929 162.875 17.236C163.032 17.1314 163.119 16.992 163.136 16.8003C163.136 16.6086 163.136 16.3994 163.049 16.1902C162.979 15.9636 162.857 15.7371 162.701 15.5106C162.561 15.284 162.387 15.0574 162.247 14.8483C162.003 14.5346 161.742 14.2731 161.463 14.064C161.184 13.8548 160.766 13.5934 160.208 13.2796C159.947 13.1402 159.685 12.9659 159.406 12.7568C159.128 12.5476 158.866 12.3211 158.605 12.1119L158.866 11.6937C159.006 11.4671 159.11 11.223 159.197 10.9616C159.267 10.7001 159.285 10.4562 159.232 10.2121C159.163 9.89843 159.04 9.65446 158.866 9.48017C158.692 9.32331 158.43 9.09674 158.082 8.83531L161.324 8.73074C161.951 8.69589 162.387 8.6262 162.596 8.53905C162.823 8.43448 162.945 8.27754 162.945 8.0161C162.945 7.71981 162.84 7.49325 162.631 7.37125C162.422 7.24924 162.038 7.16211 161.481 7.16211C161.237 7.16211 160.993 7.16216 160.714 7.21445C160.435 7.26673 160.243 7.30155 160.086 7.38869C159.929 7.47584 159.72 7.54556 159.476 7.61528C159.215 7.68499 159.006 7.73731 158.797 7.75474C158.343 7.80702 157.873 7.85934 157.402 7.8942C156.932 7.92905 156.461 7.96387 155.99 7.96387C155.52 7.96387 155.102 7.98132 154.683 7.98132H153.62C153.237 7.98132 152.818 7.96382 152.365 7.91154C151.895 7.85925 151.511 7.807 151.18 7.73729C150.988 7.70243 150.832 7.73732 150.744 7.87675C150.64 7.99875 150.675 8.13816 150.884 8.29502C151.041 8.43445 151.232 8.57387 151.442 8.7133C151.651 8.85273 151.895 8.9747 152.121 9.11413C152.365 9.23613 152.609 9.34076 152.853 9.39305C153.097 9.46276 153.324 9.49762 153.533 9.49762C153.568 9.49762 153.638 9.4976 153.725 9.48017C153.829 9.48017 153.934 9.41043 154.073 9.34071C154.352 9.20128 154.561 9.11418 154.718 9.0619C154.805 9.0619 154.945 9.02708 155.119 8.99222C155.311 8.97479 155.52 8.95729 155.729 8.92244C155.956 8.92244 156.182 8.90497 156.409 8.88754H157.054C157.176 9.06183 157.28 9.23617 157.332 9.3756C157.42 9.56732 157.437 9.81133 157.385 10.1425C157.333 10.4562 157.245 10.735 157.123 10.9965C156.914 11.4845 156.583 11.9899 156.13 12.5302C155.677 13.0531 155.154 13.5934 154.561 14.1511C153.969 14.7088 153.306 15.2491 152.592 15.7894C151.877 16.3297 151.163 16.8526 150.413 17.3755C150.274 17.48 150.187 17.602 150.152 17.724C150.117 17.846 150.134 17.9505 150.169 18.0377C150.222 18.1248 150.309 18.1772 150.431 18.2295C150.57 18.2817 150.692 18.2468 150.866 18.1597C151.546 17.8285 152.208 17.4452 152.871 17.0269C153.533 16.6086 154.178 16.1728 154.788 15.6848C155.398 15.2142 155.973 14.7437 156.513 14.2556C157.036 13.7676 157.507 13.2796 157.908 12.8265H157.925L157.977 12.8788Z" fill="white"/>
<path d="M172.301 11.5724C172.301 11.2935 172.161 11.1017 171.882 10.9623C171.603 10.8228 171.237 10.7706 170.784 10.7706C170.488 10.7706 170.192 10.788 169.93 10.8403C169.651 10.8926 169.442 10.9623 169.303 11.0668C169.129 11.2063 168.797 11.2935 168.309 11.3458C168.205 11.3458 168.065 11.3631 167.891 11.3631H167.368L167.438 6.44828C167.438 6.30885 167.438 6.15197 167.438 5.99511C167.438 5.83825 167.455 5.68138 167.508 5.54195C167.577 5.12366 167.438 4.77505 167.072 4.53105C166.776 4.3219 166.392 4.11276 165.922 3.88619C165.451 3.65962 164.998 3.52017 164.58 3.43302C164.51 3.43302 164.405 3.39822 164.301 3.38079C164.179 3.38079 164.057 3.36336 163.952 3.38079C163.848 3.38079 163.743 3.39818 163.638 3.45047C163.551 3.48533 163.499 3.55503 163.499 3.65961C163.499 3.71189 163.534 3.76415 163.604 3.8513C163.673 3.92101 163.743 3.99072 163.83 4.06044C164.458 4.4613 165.015 4.91448 165.468 5.40249L165.573 13.7161C165.573 14.4655 165.573 15.0755 165.608 15.5461C165.643 16.0166 165.678 16.3827 165.695 16.6441C165.73 16.9055 165.782 17.0798 165.869 17.1844C165.939 17.2889 166.044 17.3238 166.131 17.3238C166.323 17.3238 166.497 17.2192 166.654 17.0449C166.81 16.8532 166.915 16.6092 167.002 16.278C167.089 15.8772 167.142 15.3892 167.194 14.8141C167.246 14.2215 167.264 13.5418 167.281 12.7401V12.3391H170.697C171.359 12.3391 171.778 12.2694 171.952 12.1649C172.144 12.0603 172.213 11.8686 172.213 11.6246H172.231L172.301 11.5724Z" fill="white"/>
<path d="M166.689 18.2133L165.713 18.0215L164.946 18.5792C163.97 18.6664 163.029 18.7361 162.088 18.8058C161.147 18.8755 160.223 18.9104 159.282 18.9453C158.986 18.9453 158.654 18.9627 158.306 18.9453C157.957 18.9453 157.643 18.9278 157.382 18.9104C157.086 18.9104 156.79 18.8581 156.458 18.8407C156.145 18.8058 155.866 18.771 155.604 18.7361C155.378 18.7013 155.256 18.7361 155.203 18.8929C155.151 19.0324 155.204 19.1544 155.291 19.2415C155.517 19.3984 155.761 19.5553 156.023 19.6947C156.284 19.8341 156.528 19.9561 156.772 20.0781C157.016 20.1826 157.243 20.2698 157.452 20.3395C157.678 20.4093 157.853 20.4441 158.01 20.4441C158.271 20.4441 158.567 20.3744 158.864 20.2175C159.003 20.1478 159.142 20.0781 159.282 20.0258C159.421 19.9561 159.561 19.9213 159.7 19.9213C160.641 19.8516 161.582 19.7819 162.489 19.7296C163.413 19.6599 164.336 19.625 165.277 19.5901L165.347 23.9648C165.382 25.2196 165.434 26.1433 165.504 26.7184C165.574 27.311 165.731 27.5899 165.975 27.5899C166.166 27.5899 166.323 27.4854 166.428 27.3111C166.532 27.1194 166.637 26.8754 166.724 26.5791C166.846 26.1782 166.916 25.7076 166.951 25.1499C166.985 24.5922 167.02 23.8776 167.055 22.9713L167.16 19.7296C167.282 19.5553 167.386 19.3984 167.439 19.2764C167.508 19.137 167.543 19.0149 167.543 18.8755C167.543 18.5792 167.229 18.3701 166.619 18.283V18.2481L166.689 18.2133Z" fill="white"/>
<path d="M173.888 17.4801C174.028 17.5324 174.219 17.5151 174.429 17.4279C175.143 17.1142 175.875 16.7482 176.607 16.3473C177.339 15.9465 178.071 15.4933 178.786 14.9878C179.5 14.4998 180.197 13.9769 180.86 13.4367C181.539 12.8964 182.15 12.3387 182.725 11.7636L189.086 15.319C189.487 15.5456 189.87 15.7547 190.254 15.9638C190.637 16.173 190.916 16.3124 191.108 16.3821C191.3 16.4867 191.474 16.5216 191.631 16.4694C191.788 16.4171 191.91 16.3473 191.997 16.2253C192.084 16.1033 192.136 15.9639 192.136 15.7722C192.136 15.5804 192.066 15.4236 191.927 15.2493C191.753 15.0576 191.561 14.8659 191.334 14.6741C191.108 14.4824 190.846 14.2732 190.515 14.0815C190.167 13.8375 189.853 13.6632 189.574 13.5412C189.295 13.4366 189.016 13.3321 188.772 13.2799C188.546 13.245 188.25 13.1753 187.901 13.0533C187.552 12.9487 187.239 12.8267 186.977 12.7047C186.524 12.4955 185.966 12.2341 185.339 11.9029C184.694 11.5718 184.119 11.2407 183.579 10.9096C183.927 10.5261 184.241 10.1426 184.52 9.77664C184.799 9.41064 185.043 9.04463 185.287 8.67862C185.705 8.01633 185.688 7.54574 185.234 7.24945C185.043 7.14487 184.816 7.02285 184.555 6.90085C184.293 6.77885 184.032 6.67429 183.753 6.58714C183.474 6.5 183.195 6.43028 182.934 6.36056C182.672 6.29085 182.428 6.27344 182.254 6.27344C181.801 6.27344 181.574 6.36062 181.574 6.53491C181.574 6.62206 181.592 6.67432 181.662 6.7266C181.731 6.77889 181.801 6.83113 181.923 6.90085C182.202 7.04028 182.446 7.16235 182.69 7.30178C182.916 7.44121 183.073 7.54581 183.16 7.65038C183.3 7.8421 183.3 8.05124 183.16 8.29524C182.847 8.92268 182.359 9.60239 181.696 10.3518C181.034 11.1013 180.285 11.8507 179.448 12.6001C178.611 13.3495 177.723 14.0642 176.781 14.7265C175.84 15.4062 174.934 15.9639 174.062 16.4519C173.853 16.5565 173.714 16.6784 173.662 16.8353C173.592 16.9747 173.592 17.1142 173.662 17.2362C173.714 17.3408 173.801 17.4279 173.975 17.4801H173.94H173.888Z" fill="white"/>
<path d="M193.634 21.3668C193.372 21.2099 192.867 21.1227 192.152 21.1227C191.559 21.1227 191.089 21.1401 190.74 21.1924C190.392 21.2447 190.095 21.3319 189.851 21.419C189.642 21.5061 189.381 21.5584 189.05 21.6107C188.719 21.663 188.353 21.6978 187.952 21.7327L183.926 21.8896L183.978 17.4278C184.03 17.1838 184.048 16.9921 183.978 16.8352C183.926 16.6958 183.751 16.5738 183.438 16.5041C183.176 16.4518 182.88 16.3996 182.566 16.3647C182.252 16.3124 181.904 16.2949 181.538 16.2949C181.294 16.2949 181.085 16.3298 180.893 16.3995C180.701 16.4692 180.632 16.5564 180.632 16.661C180.632 16.7133 180.649 16.7655 180.701 16.8352C180.754 16.9049 180.841 16.9398 180.963 16.9747C181.155 17.0095 181.364 17.0792 181.555 17.1664C181.765 17.2535 181.956 17.3407 182.148 17.4278L182.218 21.9593C181.067 21.9941 179.917 22.0291 178.767 22.0291C177.616 22.0291 176.518 22.0464 175.473 22.0639C174.967 22.0639 174.357 22.029 173.625 21.9593C172.893 21.8896 172.266 21.8199 171.708 21.7501C171.482 21.7153 171.325 21.7675 171.255 21.9244C171.185 22.0638 171.22 22.2207 171.377 22.3601C171.604 22.5518 171.865 22.7436 172.179 22.9178C172.492 23.0921 172.806 23.249 173.137 23.371C173.451 23.5104 173.782 23.615 174.096 23.7022C174.41 23.7893 174.688 23.8416 174.95 23.8416C175.211 23.8416 175.508 23.7544 175.874 23.5801C176.048 23.493 176.222 23.4233 176.396 23.371C176.571 23.3187 176.728 23.2839 176.867 23.2664C177.669 23.1793 178.645 23.1096 179.778 23.0399C180.911 22.9701 182.096 22.9354 183.298 22.9005C183.786 22.9005 184.309 22.8831 184.884 22.8831H186.662C187.655 22.8831 188.649 22.8831 189.625 22.8831C190.601 22.8831 191.49 22.9004 192.274 22.9178C192.884 22.9178 193.337 22.8656 193.599 22.7262C193.86 22.5867 194 22.3776 194 22.0813C194 21.785 193.86 21.5584 193.599 21.4015H193.564L193.634 21.3668Z" fill="white"/>
</svg>
